# xmcd
#
# Track frame offsets: 
#        150
#        17562
#        34262
#        54510
#        72372
#        84205
#        103887
#        121810
#        143065
#        161692
#        180745
#        199045
#        216765
#        233160
#        252722
#        272810
#        296497
#        317367
#        336320
#
# Disc length: 4722 seconds
#
# Revision: 2
# Processed by: cddbd v1.5.2PL0 Copyright (c) Steve Scherf et al.
# Submitted via: ExactAudioCopyFreeDBPlugin 1.0
#
DISCID=17127013
DTITLE=Wet Wet Wet - End Of Part One - Their Greatest Hits
DYEAR=1993
DGENRE=Pop
TTITLE0=Wishing I Was Lucky
TTITLE1=Sweet Little Mystery
TTITLE2=Angel Eyes
TTITLE3=Temptations
TTITLE4=With A Little Help From My Friends
TTITLE5=Sweet Surrender
TTITLE6=Broke Away
TTITLE7=Hold Back The River
TTITLE8=Stay With Me Heartache
TTITLE9=This Time (From The Memphis Sessions)
TTITLE10=Make It Tonight
TTITLE11=Put The Light On
TTITLE12=Goodnight Girl
TTITLE13=More Than Love
TTITLE14=Lip Service
TTITLE15=Blue For You (Live At The Royal Albert Hall)
TTITLE16=Shed A Tear
TTITLE17=Cold, Cold Heart
TTITLE18=Love Is All Around
EXTD=
EXTT0=
EXTT1=
EXTT2=
EXTT3=
EXTT4=
EXTT5=
EXTT6=
EXTT7=
EXTT8=
EXTT9=
EXTT10=
EXTT11=
EXTT12=
EXTT13=
EXTT14=
EXTT15=
EXTT16=
EXTT17=
EXTT18=
PLAYORDER=
